:SAMPLES-PER-SECOND 30
:FULLY-SPECIFIED
:DEGREES
47
root  24.54377723 39.55866596 26.77222124 -5.268740177 -0.2853600085 -0.02312210016
lowerback  9.374990463 2.775490046 -0.913909018
upperback  1.038650036 3.648339987 1.13823998
thorax  -4.301829815 1.830979943 1.22063005
lowerneck  -15.50650024 -6.381040096 -15.80070019
upperneck  27.08880043 -7.440179825 9.421079636
head  12.54899979 -3.800450087 5.123529911
lclavicle  0 -5.34481991e-014 2.981770104e-014
lhumerus  -49.70259857 22.01160049 71.27159882
lradius  -3.223316538e-031 -1.441899627e-031 24.10059929
lwrist  -1.059337512e-030 -3.531125038e-031 -6.378990173
lhand  -7.276725566e-031 -13.94540024 30.21699905
lfingers  90 7.125020027 -90
lthumb  93.20059407 14.50068189 77.41090956
rclavicle  0 -5.34481991e-014 2.981770104e-014
rhumerus  -29.45560074 -6.173140049 -81.46240234
rradius  2.881759187e-031 2.040663623e-031 35.30350113
rwrist  3.531125038e-031 -7.062250077e-031 3.172899961
rhand  -0 -18.11689949 10.94979954
rfingers  -90 -7.125020027 -90
rthumb  -86.01877507 -25.84329222 -80.92872603
rfemur  4.597219944 0.3052549958 20.45280075
rtibia  -0 0 51.89289856
rfoot  -4.815809674e-032 23.57390022 -1.971150041
rtoes  6.64713689 18.90588123 -109.7820469
lfemur  -14.96469975 5.56385994 -21.86969948
ltibia  -0 0 27.9810009
lfoot  -0 -4.069489956 -6.684780121
ltoes  -9.828801354 -17.50500311 -119.9409707
48
root  24.61066659 39.5937792 27.16666695 -5.498270035 -0.418731004 0.1784719974
lowerback  9.391940117 2.76079011 -0.8642320037
upperback  1.171820045 3.628309965 1.042580009
thorax  -4.16242981 1.818480015 1.099499941
lowerneck  -15.7652998 -6.402639866 -15.88099957
upperneck  27.26790047 -7.412730217 9.411860466
head  12.67510033 -3.795000076 5.141210079
lclavicle  0 -5.34481991e-014 2.981770104e-014
lhumerus  -49.31000137 21.47920036 71.80139923
lradius  -3.215032271e-031 -1.460277896e-031 24.42770004
lwrist  -7.062250077e-031 -3.531125038e-031 -5.72273016
lhand  -7.257811323e-031 -13.33080006 30.42149925
lfingers  90 7.125020027 -90
lthumb  93.39313978 14.63075952 76.7899781
rclavicle  0 -5.34481991e-014 2.981770104e-014
rhumerus  -29.59079933 -6.278920174 -81.53649902
rradius  2.893849719e-031 2.023481613e-031 34.96260071
rwrist  1.059337512e-030 -0 3.431420088
rhand  3.703743067e-031 -17.56150055 11.08250046
rfingers  -90 -7.125020027 -90
rthumb  -85.73126148 -25.95687917 -80.32223467
rfemur  3.16663003 0.261725992 19.95350075
rtibia  -0 0 54.39179993
rfoot  -4.895673223e-032 25.63170052 -2.362129927
rtoes  6.84626128 18.83696673 -110.3976765
lfemur  -13.86779976 5.475769997 -22.16489983
ltibia  -0 0 27.7364006
lfoot  4.428131694e-032 -4.593840122 -6.350450039
ltoes  -9.572579055 -17.643295 -119.092398
49
root  24.6695556 39.61511146 27.53422354 -5.572289944 -0.3582369983 0.6106029749
lowerback  9.326660156 2.732690096 -1.114789963
upperback  1.342730045 3.559600115 0.9211090207
thorax  -3.953579903 1.786149979 1.130820036
lowerneck  -16.14139938 -6.442399979 -16.06360054
upperneck  27.28179932 -7.377590179 9.494099617
head  12.76679993 -3.779299974 5.207129955
lclavicle  0 -5.34481991e-014 2.981770104e-014
lhumerus  -48.60609818 21.08189964 72.41149902
lradius  -3.210744398e-031 -1.46968175e-031 24.59539986
lwrist  -1.059337512e-030 -3.531125038e-031 -5.213439941
lhand  -7.259260945e-031 -13.37899971 30.76009941
lfingers  90 7.125020027 -90
lthumb  93.46151231 14.96602098 76.8173911
rclavicle  0 -5.34481991e-014 2.981770104e-014
rhumerus  -29.53120041 -6.289869785 -81.58239746
rradius  2.90273907e-031 2.010708812e-031 34.71009827
rwrist  1.059337512e-030 -0 3.386369944
rhand  -0 -17.4571991 11.88700008
rfingers  -90 -7.125020027 -90
rthumb  -85.52844179 -26.74628917 -80.14230997
rfemur  1.550400019 -0.01905459911 19.19549942
rtibia  -0 0 56.88330078
rfoot  -4.910578003e-032 25.99180031 -3.09717989
rtoes  6.950193739 18.80007009 -110.7198753
lfemur  -12.96650028 5.266860008 -22.75079918
ltibia  -0 0 27.45070076
lfoot  4.431692486e-032 -5.134990215 -5.992280006
ltoes  -10.48577893 -17.12747511 -122.1479587
50
root  24.71199937 39.62533305 27.87377665 -5.673130035 -0.1956859976 1.217290044
lowerback  9.26031971 2.705319881 -1.641459942
upperback  1.58348 3.464859962 0.7715389729
thorax  -3.685110092 1.742820024 1.292590022
lowerneck  -16.43869972 -6.468019962 -16.02700043
upperneck  27.07550049 -7.316939831 9.351200104
head  12.72780037 -3.753720045 5.141829967
lclavicle  0 -5.34481991e-014 2.981770104e-014
lhumerus  -47.54050064 20.97019958 72.88469696
lradius  -3.218621198e-031 -1.452350378e-031 24.28650093
lwrist  -3.531125038e-031 -7.062250077e-031 -5.202549934
lhand  -7.231447754e-031 -12.41860008 31.89450073
lfingers  90 7.125020027 -90
lthumb  93.98095034 15.94992681 75.78856806
rclavicle  0 -5.34481991e-014 2.981770104e-014
rhumerus  -29.31220055 -6.064549923 -81.67340088
rradius  2.913091332e-031 1.995681068e-031 34.41400146
rwrist  7.062250077e-031 -3.531125038e-031 3.075099945
rhand  3.69762833e-031 -17.25959969 11.15579987
rfingers  -90 -7.125020027 -90
rthumb  -85.57338452 -26.01913555 -79.99195447
rfemur  -0.1085949987 -0.4490309954 18.2723999
rtibia  -0 0 59.34199905
rfoot  -4.861831907e-032 24.78750038 -4.330319881
rtoes  6.743072739 18.87296907 -110.0783798
lfemur  -12.09210014 5.09085989 -23.49860001
ltibia  -0 0 27.13089943
lfoot  4.435128493e-032 -5.607289791 -5.7582798
ltoes  -10.53838724 -17.0957666 -122.326756
51
root  24.74688883 39.63644373 28.21266595 -5.817329884 0.01806689985 1.607030034
lowerback  9.388750076 2.637229919 -2.022520065
upperback  1.529610038 3.331199884 0.7007920146
thorax  -3.824800014 1.682119966 1.442149997
lowerneck  -15.99619961 -6.376629829 -15.89550018
upperneck  26.8784008 -7.192659855 9.040670395
head  12.51819992 -3.729029894 5.014540195
lclavicle  0 -5.34481991e-014 2.981770104e-014
lhumerus  -47.05630112 20.82530022 73.0719986
lradius  -3.225637664e-031 -1.436699585e-031 24.00819969
lwrist  -1.059337512e-030 -3.531125038e-031 -5.512440205
lhand  -7.237102742e-031 -12.62030029 29.94779968
lfingers  90 7.125020027 -90
lthumb  93.44297319 14.08661969 76.11528803
rclavicle  0 -5.34481991e-014 2.981770104e-014
rhumerus  -29.74150085 -5.767960072 -81.69650269
rradius  2.921923722e-031 1.98272686e-031 34.1595993
rwrist  7.062250077e-031 -3.531125038e-031 3.025360107
rhand  -0 -17.40130043 11.33310032
rfingers  -90 -7.125020027 -90
rthumb  -85.60720028 -26.19857102 -80.12919713
rfemur  -1.692260027 -0.9345939755 17.64819908
rtibia  -0 0 61.66830063
rfoot  -4.834104421e-032 24.06599998 -5.838640213
rtoes  6.068017684 19.09327981 -108.0033436
lfemur  -11.18420029 5.009769917 -23.96969986
ltibia  -0 0 26.79719925
lfoot  4.438348545e-032 -6.015850067 -5.69698
ltoes  -10.59510713 -17.06132739 -122.5198892
52
root  24.78733363 39.64777669 28.57066778 -6.063489914 0.2477820069 2.063750029
lowerback  9.694660187 2.56855011 -2.448169947
upperback  1.27015996 3.183990002 0.612218976
thorax  -4.277029991 1.620419979 1.58773005
lowerneck  -14.98139954 -6.191929817 -15.92529964
upperneck  26.71500015 -7.05325985 8.947589874
head  12.22029972 -3.702199936 5.014110088
lclavicle  0 -5.34481991e-014 2.981770104e-014
lhumerus  -47.45560074 19.52980042 73.81459808
lradius  -3.200525678e-031 -1.491804084e-031 24.99080086
lwrist  -1.412450015e-030 -0 -4.653480053
lhand  -7.24906631e-031 -13.03590012 30.01309967
lfingers  90 7.125020027 -90
lthumb  93.36447815 14.19911491 76.52223947
rclavicle  0 -5.34481991e-014 2.981770104e-014
rhumerus  -30.78149986 -5.552710056 -81.67769623
rradius  2.918743199e-031 1.987405891e-031 34.25139999
rwrist  1.059337512e-030 -0 3.182689905
rhand  -0 -17.29389954 11.7784996
rfingers  -90 -7.125020027 -90
rthumb  -85.46914103 -26.63354969 -79.97529194
rfemur  -3.026599884 -1.424499989 16.91379929
rtibia  -0 0 63.7806015
rfoot  -9.494586321e-032 21.60050011 -7.015470028
rtoes  5.644413834 19.21835663 -106.7124623
lfemur  -10.12989998 5.037819862 -24.51449966
ltibia  -0 0 26.49530029
lfoot  4.441854135e-032 -6.430689812 -5.705500126
ltoes  -10.53624057 -17.09706486 -122.3194539
53
root  24.83422287 39.65400035 28.92466568 -6.353990078 0.4625250101 2.45498991
lowerback  9.823760033 2.474730015 -2.739180088
upperback  1.601690054 3.023740053 0.5300469995
thorax  -4.00564003 1.538779974 1.69054997
lowerneck  -15.80930042 -6.308619976 -15.9861002
upperneck  26.8451004 -7.082250118 8.987469673
head  12.45180035 -3.699719906 5.028619766
lclavicle  0 -5.34481991e-014 2.981770104e-014
lhumerus  -46.89110184 17.83609962 75.44239807
lradius  -3.156334894e-031 -1.583159524e-031 26.63750076
lwrist  -7.062250077e-031 -7.062250077e-031 -2.98555994
lhand  -1.445051099e-030 -12.1935997 32.76520157
lfingers  90 7.125020027 -90
lthumb  94.26560152 16.76351048 75.50081405
rclavicle  0 -5.34481991e-014 2.981770104e-014
rhumerus  -30.54910088 -5.387889862 -81.82820129
rradius  2.919298034e-031 1.986590805e-031 34.23540115
rwrist  -3.531125038e-031 -0 3.05418992
rhand  3.694153882e-031 -17.08530045 11.77029991
rfingers  -90 -7.125020027 -90
rthumb  -85.36842301 -26.61806203 -79.75076724
rfemur  -4.244349957 -1.97160995 16.21990013
rtibia  -0 0 65.65740204
rfoot  -0 19.56830025 -7.610539913
rtoes  5.583846697 19.23542764 -106.528541
lfemur  -9.058830261 5.071370125 -25.0060997
ltibia  -0 0 26.22139931
lfoot  4.445648824e-032 -6.850930214 -5.742630005
ltoes  -10.68985607 -17.00320855 -122.8433627
